<svg width="455" height="622" viewBox="0 0 455 622" fill="none" xmlns="http://www.w3.org/2000/svg">


    <path d="M218.753 168.93L87.541 424.879L108.916 441.801L232.62 200.88L218.753 168.93Z" fill="white"/>
    <path d="M9.62981 400.288C-9.40446 436.596 0.485677 481.338 33.051 506.241L150.415 595.989C184.208 621.831 227.795 628.384 266.555 615.65L181.095 555.868L63.7319 466.12C50.7058 456.158 46.7497 438.262 54.3634 423.739L227.117 94.2002L200.622 35.957L9.62981 400.288Z" fill="#666666"/>
    <path fill-rule="evenodd" clip-rule="evenodd" d="M421.135 506.255C453.701 481.353 463.59 436.61 444.556 400.302L238.253 6.76425C233.524 -2.25475 220.614 -2.25475 215.886 6.76425L200.574 35.971L227.069 94.214L399.823 423.753C407.437 438.276 403.481 456.172 390.454 466.134L273.09 555.882C270.343 557.983 267.489 559.87 264.548 561.547L305.905 594.373L421.135 506.255ZM181.586 556.259L182.202 556.748C181.816 556.464 181.43 556.176 181.047 555.882L181.586 556.259Z" fill="#666666"/>


  <!--  <g transform="translate(350,-10) scale(5.3)">
        <circle cx="30" cy="30" r="28" fill="#666666"/>

        <path d="M32 15 A15 15 0 0 1 47 30" stroke="white" stroke-width="2.2" stroke-linecap="round" fill="none"/>

        <path d="M32 20 A10 10 0 0 1 42 30" stroke="white" stroke-width="2.2" stroke-linecap="round" fill="none"/>

        <path d="M19 18h6l3 8-4 2a15 15 0 0 0 7 7l2-4 8 3v6a2 2 0 0 1-2 2A20 20 0 0 1 15 20a2 2 0 0 1 2-2z"
            fill="white"/>
    </g>-->
</svg>